HIERARCHY
ROOT Hips
{
  OFFSET 0.0 0.0 0.0
  CHANNELS 6 XPOSITION YPOSITION ZPOSITION ZROTATION XROTATION YROTATION 
  JOINT LeftUpLeg
  {
    OFFSET 0.089458 -0.0866707 0.00101652
    CHANNELS 3 ZROTATION XROTATION YROTATION 
    JOINT LeftLeg
    {
      OFFSET 0.0 -0.444227 0.013727
      CHANNELS 3 ZROTATION XROTATION YROTATION 
      JOINT LeftFoot
      {
        OFFSET -0.00253549 -0.420924 -0.0146059
        CHANNELS 3 ZROTATION XROTATION YROTATION 
        End Site
        {
          OFFSET -0.0004 -0.0441509 0.084991
        }
      }
    }
  }
  JOINT Spine
  {
    OFFSET 0.0 0.118905 0.0
    CHANNELS 3 ZROTATION XROTATION YROTATION 
    JOINT Spine1
    {
      OFFSET 0.0 0.256574 0.00127663
      CHANNELS 3 ZROTATION XROTATION YROTATION 
      End Site
      {
        OFFSET -0.0029 0.2150836 0.02525291
      }
      JOINT RightArm
      {
        OFFSET -0.162727 -0.05365632 0.00102123
        CHANNELS 3 ZROTATION XROTATION YROTATION 
        JOINT RightForeArm
        {
          OFFSET -0.26364 0.00099144 -0.0142434
          CHANNELS 3 ZROTATION XROTATION YROTATION 
          End Site
          {
            OFFSET -0.220324 0.00085362 0.0102216
          }
        }
      }
      JOINT LeftArm
      {
        OFFSET 0.162727 -0.0536563199 0.00102123
        CHANNELS 3 ZROTATION XROTATION YROTATION 
        JOINT LeftForeArm
        {
          OFFSET 0.262597 0.00099144 -0.0142434
          CHANNELS 3 ZROTATION XROTATION YROTATION 
          End Site
          {
            OFFSET 0.220902 0.00085362 0.0102216
          }
        }
      }
    }
  }
  JOINT RightUpLeg
  {
    OFFSET -0.089458 -0.0866707 0.00101652
    CHANNELS 3 ZROTATION XROTATION YROTATION 
    JOINT RightLeg
    {
      OFFSET 0.0 -0.444227 0.013727
      CHANNELS 3 ZROTATION XROTATION YROTATION 
      JOINT RightFoot
      {
        OFFSET 0.00253549 -0.420924 -0.0146059
        CHANNELS 3 ZROTATION XROTATION YROTATION 
        End Site
        {
          OFFSET 0.0004 -0.0441509 0.084991
        }
      }
    }
  }
}
MOTION
Frames: 8
Frame Time: 0.033333
1.91207199291 0.985254747814 0.0416116859774 -5.04633329655 -0.436649618049 -90.7360305196 -1.72399001243 4.37904985474 2.46188000119 -0.222620998012 7.76782985531 22.8084997804 -1.38923411692 -34.3659123938 0.010938043529 0.821456019224 8.08853968024 -0.198973002136 -2.07806990049 -0.882691973506 0.287450005324 78.2428700371 -17.9049806167 5.11292934851 8.01411025508 37.5198990921 8.37193959683 -73.0931806104 -10.7439336682 -1.42094935328 -5.96493995218 36.5842997796 -12.5149001209 -0.2714919887 3.71850012567 -4.02336988815 -0.0736215018259 10.4734001205 -10.6756001869 2.29881649183 -36.2671775116 -0.110219976596 
1.9121624896 0.980897261113 0.0414057166758 -5.05063845017 -0.450156583937 -90.7369662555 -1.72434998475 4.37939904816 2.46176004599 -0.223590991596 7.76354988802 22.8108544881 -1.38922504557 -34.3659055636 0.0109444143145 0.810782994873 8.07232822624 -0.197812256843 -2.05709865842 -0.859892321809 0.284867553487 78.2517970943 -17.9338808546 5.13395608587 8.02076798197 37.5497743396 8.3513201095 -73.1014383091 -10.7385694084 -1.42914461979 -5.94666706172 36.601826045 -12.5331187968 -0.27353346821 3.71626537316 -4.02558543076 -0.0719256205498 10.4751981678 -10.672906531 2.30860650079 -36.2687552853 -0.11017643414 
1.91225099811 0.980797909724 0.0409209294314 -5.04678494281 -0.485800032842 -90.7337014251 -1.73383775784 4.36915120309 2.44741985038 -0.219503403522 7.7611823737 22.8264648854 -1.38881256618 -34.3660797334 0.0109568782425 0.743591382438 7.97105103501 -0.187718304467 -1.93353285237 -0.720641199775 0.273519567707 78.2827037003 -18.0035180483 5.21963056372 8.03289242152 37.6024897396 8.30937250271 -73.1473849917 -10.7281909359 -1.48875594954 -5.8943858056 36.6708929179 -12.5812758993 -0.285971856338 3.69824989545 -4.03889320058 -0.0656090162487 10.4953899145 -10.6600299169 2.32354327073 -36.2826273995 -0.110020740511 
1.91230715845 0.980772232542 0.0402756617709 -5.03502079574 -0.549933214632 -90.736153463 -1.7698079886 4.35029006258 2.40725150787 -0.20858197106 7.76114053879 22.8707842754 -1.38281139122 -34.3656528466 0.0109480603616 0.612714926101 7.79318010241 -0.160972550997 -1.71093357223 -0.477574030482 0.261764491981 78.3180840802 -18.0093954261 5.32991037118 8.02989994489 37.5660506804 8.31608999376 -73.2265332238 -10.6851837961 -1.59446721421 -5.85085487559 36.7280103749 -12.6246715062 -0.325665634102 3.65417169652 -4.07603790372 -0.0555620447684 10.5553837348 -10.6112700502 2.31908763951 -36.318537119 -0.109981040037 
1.91248007492 0.980737401931 0.0396566031411 -5.0340632886 -0.633895396078 -90.7640889367 -1.82956904891 4.34550209997 2.36166789257 -0.20600992459 7.74434339607 22.9370302802 -1.35859559585 -34.3594646952 0.0110624893755 0.482275815313 7.64851413447 -0.125674066666 -1.5139869885 -0.277925013042 0.262498897399 78.3420307234 -17.912391372 5.40054648002 8.02049989705 37.4588815972 8.36561740298 -73.2963104363 -10.5620918344 -1.67081805696 -5.8382651294 36.6618258418 -12.662187174 -0.395813784631 3.59953487892 -4.13587804482 -0.0431257410483 10.6386813069 -10.5132576894 2.29767072759 -36.3632509524 -0.110341239134 
1.9128072966 0.980716283198 0.039135310874 -5.04844681322 -0.708057269921 -90.7879399573 -1.87894896873 4.35045526778 2.33704996981 -0.216408020488 7.7231809087 22.9747260942 -1.29742826362 -34.3663017146 0.0152421240868 0.403439610798 7.57006514299 -0.107409467144 -1.4054848445 -0.163175206963 0.260735801459 78.3734427634 -17.8438948199 5.4616894797 8.04238040806 37.4311032178 8.35179566142 -73.344210553 -10.3813206327 -1.69745632833 -5.81596883063 36.4636342427 -12.7387979908 -0.460148830528 3.57135672005 -4.18871254625 -0.0304050439926 10.6816508807 -10.4316130231 2.30880244184 -36.3837381048 -0.105180210793 
1.91318938533 0.980716956271 0.0386792423765 -5.07050192093 -0.75036036671 -90.7452717656 -1.88957098011 4.34165158083 2.33393903209 -0.223533148432 7.73364475851 22.928106638 -1.24869262274 -34.3905044899 0.0203147201544 0.37943613826 7.50999875188 -0.126371266229 -1.35247926817 -0.0693055026213 0.231381275912 78.4222376348 -17.8749909636 5.53878609373 8.09307151075 37.4422978979 8.27004427347 -73.3831084803 -10.217372187 -1.71776995126 -5.7742589998 36.2035986957 -12.8464468947 -0.475675931584 3.59816414533 -4.20225467694 -0.0248858742822 10.6372256228 -10.4610374781 2.33865463738 -36.3732161984 -0.0978516712777 
1.91355970576 0.980729984271 0.0382622660591 -5.09513713261 -0.767120903881 -90.6316583989 -1.86837604934 4.32003445899 2.33923477657 -0.220348612752 7.77005393566 22.8051973839 -1.23811223283 -34.4213154733 0.02156480152 0.382762813912 7.44167295452 -0.170259887381 -1.30719468709 0.0314989614872 0.179513886572 78.4768176765 -17.9361416473 5.59270403393 8.12637039051 37.3400533811 8.2266350062 -73.4185025206 -10.1172586892 -1.7585658174 -5.74624754024 35.9911729823 -12.9243887447 -0.447361515782 3.66306631037 -4.18359289258 -0.02736032542 10.5384440119 -10.5936848744 2.36445823829 -36.3558845934 -0.0943895724514 
